<svg xmlns="http://www.w3.org/2000/svg" viewBox="0 0 512 512" role="img" aria-label="Academic analytics logo">
  <rect x="14" y="52" width="484" height="380" rx="14" fill="#2a4a96"/>
  <rect x="48" y="88" width="92" height="16" rx="8" fill="#000"/>
  <rect x="48" y="116" width="92" height="16" rx="8" fill="#000"/>
  <rect x="48" y="148" width="92" height="16" rx="8" fill="#000"/>

  <circle cx="112" cy="236" r="28" fill="#2a4a96" stroke="#000" stroke-width="14"/>
  <circle cx="208" cy="168" r="28" fill="#2a4a96" stroke="#000" stroke-width="14"/>
  <circle cx="304" cy="202" r="28" fill="#2a4a96" stroke="#000" stroke-width="14"/>
  <circle cx="400" cy="156" r="28" fill="#2a4a96" stroke="#000" stroke-width="14"/>
  <polyline points="112,236 208,168 304,202 400,156" fill="none" stroke="#000" stroke-width="14" stroke-linecap="round" stroke-linejoin="round"/>

  <circle cx="112" cy="380" r="80" fill="#2495ca" stroke="#000" stroke-width="14"/>
  <path d="M112 300 A80 80 0 0 1 192 380 L112 380 Z" fill="#2aa2d9"/>
  <path d="M112 300 A80 80 0 0 0 56 437 L112 380 Z" fill="#29b0e5"/>
  <path d="M112 380 L192 380 A80 80 0 0 1 136 456 Z" fill="#1f89bd"/>
  <line x1="112" y1="300" x2="112" y2="380" stroke="#000" stroke-width="14"/>
  <line x1="56" y1="437" x2="112" y2="380" stroke="#000" stroke-width="14"/>
  <line x1="112" y1="380" x2="192" y2="380" stroke="#000" stroke-width="14"/>

  <rect x="208" y="232" width="72" height="220" rx="8" fill="#2495ca" stroke="#000" stroke-width="14"/>
  <rect x="276" y="294" width="72" height="158" rx="8" fill="#2495ca" stroke="#000" stroke-width="14"/>
  <rect x="340" y="258" width="72" height="194" rx="8" fill="#2495ca" stroke="#000" stroke-width="14"/>
  <rect x="402" y="320" width="58" height="132" rx="8" fill="#2495ca" stroke="#000" stroke-width="14"/>
  <rect x="200" y="444" width="266" height="16" rx="8" fill="#2495ca"/>
</svg>
